<svg xmlns="http://www.w3.org/2000/svg" viewBox="0 0 800 500" width="100%" height="100%">
  <defs>
    <linearGradient id="cs-bg" x1="0%" y1="0%" x2="100%" y2="100%">
      <stop offset="0%" stop-color="#0b1120"/>
      <stop offset="50%" stop-color="#181335"/>
      <stop offset="100%" stop-color="#0e1726"/>
    </linearGradient>
  </defs>

  <rect width="800" height="500" rx="16" fill="url(#cs-bg)"/>
  <rect x="24" y="24" width="752" height="452" rx="12" fill="#0d111d" stroke="#2b354b" stroke-width="1.5"/>
  <rect x="24" y="24" width="752" height="42" rx="12" fill="#141c30"/>
  <circle cx="50" cy="45" r="6" fill="#ef4444"/>
  <circle cx="70" cy="45" r="6" fill="#eab308"/>
  <circle cx="90" cy="45" r="6" fill="#22c55e"/>
  <text x="400" y="49" fill="#cbd5e1" font-family="system-ui, sans-serif" font-size="12" text-anchor="middle" font-weight="600">CareerSphere AI — Intelligent Career &amp; Skill Navigator</text>

  <!-- Sidebar -->
  <rect x="44" y="86" width="180" height="370" rx="8" fill="#111827"/>
  <text x="64" y="120" fill="#a855f7" font-family="sans-serif" font-size="13" font-weight="bold">CAREER SPHERE</text>
  <rect x="54" y="140" width="160" height="32" rx="6" fill="#1e1b4b"/>
  <text x="74" y="161" fill="#c084fc" font-family="sans-serif" font-size="12">🧭 Overview</text>
  <text x="74" y="200" fill="#94a3b8" font-family="sans-serif" font-size="12">📄 Resume Analyzer</text>
  <text x="74" y="235" fill="#94a3b8" font-family="sans-serif" font-size="12">🎯 Interview Prep</text>
  <text x="74" y="270" fill="#94a3b8" font-family="sans-serif" font-size="12">📊 Skill Roadmaps</text>
  <text x="74" y="305" fill="#94a3b8" font-family="sans-serif" font-size="12">💼 Job Matcher</text>

  <!-- Main Dashboard Content -->
  <!-- Top Stat Cards -->
  <g transform="translate(244, 86)">
    <rect x="0" y="0" width="158" height="85" rx="8" fill="#171e33" stroke="#334155" stroke-width="1"/>
    <text x="16" y="26" fill="#94a3b8" font-family="sans-serif" font-size="11">MATCH SCORE</text>
    <text x="16" y="58" fill="#38bdf8" font-family="sans-serif" font-size="24" font-weight="bold">94.8%</text>
    <text x="16" y="75" fill="#10b981" font-family="sans-serif" font-size="10">↑ Data Analyst Track</text>

    <rect x="176" y="0" width="158" height="85" rx="8" fill="#171e33" stroke="#334155" stroke-width="1"/>
    <text x="192" y="26" fill="#94a3b8" font-family="sans-serif" font-size="11">VERIFIED SKILLS</text>
    <text x="192" y="58" fill="#a855f7" font-family="sans-serif" font-size="24" font-weight="bold">18</text>
    <text x="192" y="75" fill="#c084fc" font-family="sans-serif" font-size="10">Python, SQL, Pandas</text>

    <rect x="352" y="0" width="160" height="85" rx="8" fill="#171e33" stroke="#334155" stroke-width="1"/>
    <text x="368" y="26" fill="#94a3b8" font-family="sans-serif" font-size="11">SIMULATED INTERVIEWS</text>
    <text x="368" y="58" fill="#34d399" font-family="sans-serif" font-size="24" font-weight="bold">12</text>
    <text x="368" y="75" fill="#94a3b8" font-family="sans-serif" font-size="10">Completed 100%</text>
  </g>

  <!-- Big Graph & Roadmap preview -->
  <rect x="244" y="190" width="512" height="266" rx="8" fill="#111827" stroke="#252f48" stroke-width="1"/>
  <text x="264" y="222" fill="#f8fafc" font-family="sans-serif" font-size="14" font-weight="600">Career Trajectory: Software Engineer / Data Analyst</text>
  <text x="264" y="240" fill="#94a3b8" font-family="sans-serif" font-size="12">AI evaluated skill competencies and recommended next study modules</text>

  <!-- Bar chart visual -->
  <g transform="translate(264, 260)">
    <text x="0" y="20" fill="#cbd5e1" font-family="sans-serif" font-size="11">Python Data Analytics</text>
    <rect x="140" y="8" width="300" height="14" rx="7" fill="#1e293b"/>
    <rect x="140" y="8" width="280" height="14" rx="7" fill="#8b5cf6"/>
    <text x="455" y="20" fill="#c084fc" font-family="sans-serif" font-size="11">93%</text>

    <text x="0" y="55" fill="#cbd5e1" font-family="sans-serif" font-size="11">Object-Oriented Java</text>
    <rect x="140" y="43" width="300" height="14" rx="7" fill="#1e293b"/>
    <rect x="140" y="43" width="250" height="14" rx="7" fill="#6366f1"/>
    <text x="455" y="55" fill="#818cf8" font-family="sans-serif" font-size="11">84%</text>

    <text x="0" y="90" fill="#cbd5e1" font-family="sans-serif" font-size="11">Web Systems &amp; DOM</text>
    <rect x="140" y="78" width="300" height="14" rx="7" fill="#1e293b"/>
    <rect x="140" y="78" width="265" height="14" rx="7" fill="#38bdf8"/>
    <text x="455" y="90" fill="#38bdf8" font-family="sans-serif" font-size="11">88%</text>

    <text x="0" y="125" fill="#cbd5e1" font-family="sans-serif" font-size="11">Machine Learning EDA</text>
    <rect x="140" y="113" width="300" height="14" rx="7" fill="#1e293b"/>
    <rect x="140" y="113" width="230" height="14" rx="7" fill="#10b981"/>
    <text x="455" y="125" fill="#34d399" font-family="sans-serif" font-size="11">78%</text>
  </g>

  <!-- Next Step Badge -->
  <g transform="translate(264, 415)">
    <rect width="470" height="30" rx="6" fill="#1e183a" stroke="#8b5cf6" stroke-width="1"/>
    <text x="15" y="20" fill="#e9d5ff" font-family="sans-serif" font-size="11">🚀 Recommended: Advanced Pandas Vectorization &amp; Scikit-learn Pipeline</text>
  </g>
</svg>
